<mxfile host="Electron" agent="Mozilla/5.0 (Macintosh; Intel Mac OS X 10_15_7) AppleWebKit/537.36 (KHTML, like Gecko) draw.io/26.2.15 Chrome/134.0.6998.205 Electron/35.2.1 Safari/537.36" version="26.2.15" pages="2">
  <diagram name="Page-1" id="JWpEWby0NqubUvgiCy2l">
    <mxGraphModel dx="1018" dy="777" grid="1" gridSize="10" guides="1" tooltips="1" connect="1" arrows="1" fold="1" page="1" pageScale="1" pageWidth="827" pageHeight="1169" math="0" shadow="0">
      <root>
        <mxCell id="0" />
        <mxCell id="1" parent="0" />
        <mxCell id="Ohnr8SIryhHbwDLeaW8W-45" value="" style="rounded=1;whiteSpace=wrap;html=1;fillColor=#f5f5f5;strokeColor=#666666;fontColor=#333333;" parent="1" vertex="1">
          <mxGeometry x="430" y="160" width="157.5" height="420" as="geometry" />
        </mxCell>
        <mxCell id="Ohnr8SIryhHbwDLeaW8W-8" value="" style="rounded=1;whiteSpace=wrap;html=1;fillColor=#ffe6cc;strokeColor=#d79b00;" parent="1" vertex="1">
          <mxGeometry x="230" y="160" width="157.5" height="420" as="geometry" />
        </mxCell>
        <mxCell id="Ohnr8SIryhHbwDLeaW8W-1" value="" style="rounded=1;whiteSpace=wrap;html=1;fillColor=#d5e8d4;strokeColor=#82b366;fillStyle=hatch;" parent="1" vertex="1">
          <mxGeometry x="30" y="160" width="160" height="420" as="geometry" />
        </mxCell>
        <mxCell id="Ohnr8SIryhHbwDLeaW8W-14" value="" style="rounded=1;whiteSpace=wrap;html=1;fillColor=#ffe6cc;strokeColor=default;" parent="1" vertex="1">
          <mxGeometry x="230" y="110" width="160" height="40" as="geometry" />
        </mxCell>
        <mxCell id="Ohnr8SIryhHbwDLeaW8W-15" value="Bronze Layer" style="text;html=1;align=center;verticalAlign=middle;whiteSpace=wrap;rounded=0;fontSize=14;fontStyle=1" parent="1" vertex="1">
          <mxGeometry x="258.75" y="115" width="100" height="30" as="geometry" />
        </mxCell>
        <mxCell id="Ohnr8SIryhHbwDLeaW8W-22" value="" style="rounded=1;whiteSpace=wrap;html=1;fillColor=#fff2cc;strokeColor=#d6b656;" parent="1" vertex="1">
          <mxGeometry x="630" y="110" width="160" height="40" as="geometry" />
        </mxCell>
        <mxCell id="Ohnr8SIryhHbwDLeaW8W-23" value="Gold Layer" style="text;html=1;align=center;verticalAlign=middle;whiteSpace=wrap;rounded=0;fontSize=14;fontStyle=1" parent="1" vertex="1">
          <mxGeometry x="658.75" y="115" width="100" height="30" as="geometry" />
        </mxCell>
        <mxCell id="Ohnr8SIryhHbwDLeaW8W-80" style="edgeStyle=orthogonalEdgeStyle;rounded=0;orthogonalLoop=1;jettySize=auto;html=1;entryX=0;entryY=0.5;entryDx=0;entryDy=0;flowAnimation=1;noJump=0;ignoreEdge=0;enumerate=0;comic=0;fixDash=0;flowAnimationDuration=1000;" parent="1" source="Ohnr8SIryhHbwDLeaW8W-24" target="Ohnr8SIryhHbwDLeaW8W-48" edge="1">
          <mxGeometry relative="1" as="geometry" />
        </mxCell>
        <mxCell id="Ohnr8SIryhHbwDLeaW8W-24" value="&lt;font style=&quot;font-size: 8px;&quot;&gt;bronze.superannuation_members&lt;/font&gt;" style="rounded=1;whiteSpace=wrap;html=1;" parent="1" vertex="1">
          <mxGeometry x="240" y="233" width="140" height="30" as="geometry" />
        </mxCell>
        <mxCell id="Ohnr8SIryhHbwDLeaW8W-29" value="&lt;font style=&quot;font-size: 8px;&quot;&gt;bronze.member_employers&lt;/font&gt;" style="rounded=1;whiteSpace=wrap;html=1;" parent="1" vertex="1">
          <mxGeometry x="240" y="341" width="140" height="30" as="geometry" />
        </mxCell>
        <mxCell id="Ohnr8SIryhHbwDLeaW8W-83" style="edgeStyle=orthogonalEdgeStyle;rounded=0;orthogonalLoop=1;jettySize=auto;html=1;entryX=0;entryY=0.5;entryDx=0;entryDy=0;flowAnimation=1;noJump=0;ignoreEdge=0;enumerate=0;comic=0;fixDash=0;flowAnimationDuration=1000;" parent="1" source="Ohnr8SIryhHbwDLeaW8W-31" target="Ohnr8SIryhHbwDLeaW8W-52" edge="1">
          <mxGeometry relative="1" as="geometry" />
        </mxCell>
        <mxCell id="Ohnr8SIryhHbwDLeaW8W-31" value="&lt;font style=&quot;font-size: 8px;&quot;&gt;bronze.employment_history&lt;/font&gt;" style="rounded=1;whiteSpace=wrap;html=1;" parent="1" vertex="1">
          <mxGeometry x="240" y="460" width="140" height="30" as="geometry" />
        </mxCell>
        <mxCell id="Ohnr8SIryhHbwDLeaW8W-46" value="" style="rounded=1;whiteSpace=wrap;html=1;fillColor=#f5f5f5;strokeColor=#666666;fontColor=#333333;" parent="1" vertex="1">
          <mxGeometry x="430" y="110" width="160" height="40" as="geometry" />
        </mxCell>
        <mxCell id="Ohnr8SIryhHbwDLeaW8W-47" value="Silver Layer" style="text;html=1;align=center;verticalAlign=middle;whiteSpace=wrap;rounded=0;fontSize=14;fontStyle=1" parent="1" vertex="1">
          <mxGeometry x="458.75" y="115" width="100" height="30" as="geometry" />
        </mxCell>
        <mxCell id="Ohnr8SIryhHbwDLeaW8W-48" value="&lt;font style=&quot;font-size: 8px;&quot;&gt;&lt;font style=&quot;&quot;&gt;silver.&lt;/font&gt;&lt;font style=&quot;&quot;&gt;superannuation_members&lt;/font&gt;&lt;/font&gt;" style="rounded=1;whiteSpace=wrap;html=1;" parent="1" vertex="1">
          <mxGeometry x="440" y="233" width="140" height="30" as="geometry" />
        </mxCell>
        <mxCell id="Ohnr8SIryhHbwDLeaW8W-50" value="&lt;font style=&quot;font-size: 8px;&quot;&gt;silver.member_employers&lt;/font&gt;" style="rounded=1;whiteSpace=wrap;html=1;" parent="1" vertex="1">
          <mxGeometry x="440" y="341" width="140" height="30" as="geometry" />
        </mxCell>
        <mxCell id="Ohnr8SIryhHbwDLeaW8W-52" value="&lt;font style=&quot;font-size: 8px;&quot;&gt;silver.employment_history&lt;/font&gt;" style="rounded=1;whiteSpace=wrap;html=1;" parent="1" vertex="1">
          <mxGeometry x="440" y="460" width="140" height="30" as="geometry" />
        </mxCell>
        <mxCell id="Ohnr8SIryhHbwDLeaW8W-60" value="" style="rounded=1;whiteSpace=wrap;html=1;fillColor=#fff2cc;strokeColor=#d6b656;" parent="1" vertex="1">
          <mxGeometry x="630" y="160" width="157.5" height="420" as="geometry" />
        </mxCell>
        <mxCell id="Ohnr8SIryhHbwDLeaW8W-61" value="&lt;font style=&quot;font-size: 8px;&quot;&gt;dim_member&lt;/font&gt;" style="rounded=1;whiteSpace=wrap;html=1;" parent="1" vertex="1">
          <mxGeometry x="640" y="303.5" width="140" height="30" as="geometry" />
        </mxCell>
        <mxCell id="Ohnr8SIryhHbwDLeaW8W-63" value="&lt;font style=&quot;font-size: 8px;&quot;&gt;dim_employer&lt;/font&gt;" style="rounded=1;whiteSpace=wrap;html=1;" parent="1" vertex="1">
          <mxGeometry x="640" y="401" width="140" height="30" as="geometry" />
        </mxCell>
        <mxCell id="Ohnr8SIryhHbwDLeaW8W-65" value="&lt;font style=&quot;font-size: 8px;&quot;&gt;dim_employment&lt;/font&gt;" style="rounded=1;whiteSpace=wrap;html=1;" parent="1" vertex="1">
          <mxGeometry x="640" y="499.5" width="140" height="30" as="geometry" />
        </mxCell>
        <mxCell id="Ohnr8SIryhHbwDLeaW8W-81" style="edgeStyle=orthogonalEdgeStyle;rounded=0;orthogonalLoop=1;jettySize=auto;html=1;entryX=0;entryY=0.5;entryDx=0;entryDy=0;flowAnimation=1;noJump=0;ignoreEdge=0;enumerate=0;comic=0;fixDash=0;flowAnimationDuration=1000;" parent="1" source="Ohnr8SIryhHbwDLeaW8W-29" target="Ohnr8SIryhHbwDLeaW8W-50" edge="1">
          <mxGeometry relative="1" as="geometry" />
        </mxCell>
        <mxCell id="Ohnr8SIryhHbwDLeaW8W-104" value="&lt;h1 style=&quot;margin-top: 0px;&quot;&gt;Data Warehouse Data Flow&lt;/h1&gt;" style="text;html=1;whiteSpace=wrap;overflow=hidden;rounded=0;fillColor=#808080;fontColor=#FFFFFF;" parent="1" vertex="1">
          <mxGeometry x="31" y="27" width="319" height="43" as="geometry" />
        </mxCell>
        <mxCell id="Ohnr8SIryhHbwDLeaW8W-105" value="" style="rounded=1;whiteSpace=wrap;html=1;fillColor=#d5e8d4;strokeColor=#82b366;fillStyle=dashed;" parent="1" vertex="1">
          <mxGeometry x="30" y="110" width="160" height="40" as="geometry" />
        </mxCell>
        <mxCell id="Ohnr8SIryhHbwDLeaW8W-106" value="Sources" style="text;html=1;align=center;verticalAlign=middle;whiteSpace=wrap;rounded=0;fontSize=14;fontStyle=1" parent="1" vertex="1">
          <mxGeometry x="58.75" y="115" width="100" height="30" as="geometry" />
        </mxCell>
        <mxCell id="sf50Fowqe5iVLYME0bwj-9" style="edgeStyle=orthogonalEdgeStyle;rounded=0;orthogonalLoop=1;jettySize=auto;html=1;entryX=0;entryY=0.5;entryDx=0;entryDy=0;flowAnimation=1;noJump=0;ignoreEdge=0;enumerate=0;comic=0;fixDash=0;flowAnimationDuration=1000;" parent="1" source="sf50Fowqe5iVLYME0bwj-3" target="Ohnr8SIryhHbwDLeaW8W-24" edge="1">
          <mxGeometry relative="1" as="geometry" />
        </mxCell>
        <mxCell id="sf50Fowqe5iVLYME0bwj-3" value="" style="sketch=0;pointerEvents=1;shadow=0;dashed=0;html=1;strokeColor=#82b366;fillColor=#d5e8d4;labelPosition=center;verticalLabelPosition=bottom;verticalAlign=top;outlineConnect=0;align=center;shape=mxgraph.office.users.csv_file;" parent="1" vertex="1">
          <mxGeometry x="80.5" y="227" width="59" height="43" as="geometry" />
        </mxCell>
        <mxCell id="sf50Fowqe5iVLYME0bwj-10" style="edgeStyle=orthogonalEdgeStyle;rounded=0;orthogonalLoop=1;jettySize=auto;html=1;entryX=0;entryY=0.5;entryDx=0;entryDy=0;flowAnimation=1;noJump=0;ignoreEdge=0;enumerate=0;comic=0;fixDash=0;flowAnimationDuration=1000;" parent="1" source="sf50Fowqe5iVLYME0bwj-4" target="Ohnr8SIryhHbwDLeaW8W-29" edge="1">
          <mxGeometry relative="1" as="geometry" />
        </mxCell>
        <mxCell id="sf50Fowqe5iVLYME0bwj-4" value="" style="sketch=0;pointerEvents=1;shadow=0;dashed=0;html=1;strokeColor=#6c8ebf;fillColor=#dae8fc;labelPosition=center;verticalLabelPosition=bottom;verticalAlign=top;outlineConnect=0;align=center;shape=mxgraph.office.users.csv_file;" parent="1" vertex="1">
          <mxGeometry x="79.25" y="335" width="59" height="43" as="geometry" />
        </mxCell>
        <mxCell id="sf50Fowqe5iVLYME0bwj-11" style="edgeStyle=orthogonalEdgeStyle;rounded=0;orthogonalLoop=1;jettySize=auto;html=1;entryX=0;entryY=0.5;entryDx=0;entryDy=0;flowAnimation=1;noJump=0;ignoreEdge=0;enumerate=0;comic=0;fixDash=0;flowAnimationDuration=1000;" parent="1" source="sf50Fowqe5iVLYME0bwj-5" target="Ohnr8SIryhHbwDLeaW8W-31" edge="1">
          <mxGeometry relative="1" as="geometry" />
        </mxCell>
        <mxCell id="sf50Fowqe5iVLYME0bwj-5" value="" style="sketch=0;pointerEvents=1;shadow=0;dashed=0;html=1;strokeColor=#b85450;fillColor=#f8cecc;labelPosition=center;verticalLabelPosition=bottom;verticalAlign=top;outlineConnect=0;align=center;shape=mxgraph.office.users.csv_file;" parent="1" vertex="1">
          <mxGeometry x="79.25" y="453" width="59" height="43" as="geometry" />
        </mxCell>
        <mxCell id="sf50Fowqe5iVLYME0bwj-6" value="&lt;font style=&quot;font-size: 8px;&quot;&gt;superannuation_members.csv&lt;/font&gt;" style="text;html=1;align=center;verticalAlign=middle;resizable=0;points=[];autosize=1;strokeColor=none;fillColor=none;" parent="1" vertex="1">
          <mxGeometry x="45" y="272" width="130" height="30" as="geometry" />
        </mxCell>
        <mxCell id="sf50Fowqe5iVLYME0bwj-7" value="&lt;font style=&quot;font-size: 8px;&quot;&gt;member_employers.csv&lt;/font&gt;" style="text;html=1;align=center;verticalAlign=middle;resizable=0;points=[];autosize=1;strokeColor=none;fillColor=none;" parent="1" vertex="1">
          <mxGeometry x="55" y="380" width="110" height="30" as="geometry" />
        </mxCell>
        <mxCell id="sf50Fowqe5iVLYME0bwj-8" value="&lt;font style=&quot;font-size: 8px;&quot;&gt;employment_history.csv&lt;/font&gt;" style="text;html=1;align=center;verticalAlign=middle;resizable=0;points=[];autosize=1;strokeColor=none;fillColor=none;" parent="1" vertex="1">
          <mxGeometry x="55" y="499" width="110" height="30" as="geometry" />
        </mxCell>
        <mxCell id="sf50Fowqe5iVLYME0bwj-12" value="&lt;font style=&quot;font-size: 7px;&quot;&gt;fact_member_contribution_performance&lt;/font&gt;" style="rounded=1;whiteSpace=wrap;html=1;" parent="1" vertex="1">
          <mxGeometry x="640" y="203.5" width="140" height="30" as="geometry" />
        </mxCell>
        <mxCell id="sf50Fowqe5iVLYME0bwj-16" value="" style="endArrow=classic;html=1;rounded=0;entryX=0;entryY=0.25;entryDx=0;entryDy=0;flowAnimation=1;noJump=0;ignoreEdge=0;enumerate=0;comic=0;fixDash=0;flowAnimationDuration=1000;" parent="1" target="sf50Fowqe5iVLYME0bwj-12" edge="1">
          <mxGeometry width="50" height="50" relative="1" as="geometry">
            <mxPoint x="580" y="243.5" as="sourcePoint" />
            <mxPoint x="630" y="193.5" as="targetPoint" />
          </mxGeometry>
        </mxCell>
        <mxCell id="sf50Fowqe5iVLYME0bwj-17" value="" style="endArrow=classic;html=1;rounded=0;entryX=0;entryY=0.5;entryDx=0;entryDy=0;flowAnimation=1;noJump=0;ignoreEdge=0;enumerate=0;comic=0;fixDash=0;flowAnimationDuration=1000;" parent="1" target="Ohnr8SIryhHbwDLeaW8W-61" edge="1">
          <mxGeometry width="50" height="50" relative="1" as="geometry">
            <mxPoint x="580" y="242.5" as="sourcePoint" />
            <mxPoint x="640" y="210" as="targetPoint" />
          </mxGeometry>
        </mxCell>
        <mxCell id="sf50Fowqe5iVLYME0bwj-18" value="" style="endArrow=classic;html=1;rounded=0;entryX=0.063;entryY=0.167;entryDx=0;entryDy=0;entryPerimeter=0;flowAnimation=1;noJump=0;ignoreEdge=0;enumerate=0;comic=0;fixDash=0;flowAnimationDuration=1000;" parent="1" target="Ohnr8SIryhHbwDLeaW8W-60" edge="1">
          <mxGeometry width="50" height="50" relative="1" as="geometry">
            <mxPoint x="580" y="352.5" as="sourcePoint" />
            <mxPoint x="640" y="320" as="targetPoint" />
          </mxGeometry>
        </mxCell>
        <mxCell id="sf50Fowqe5iVLYME0bwj-19" value="" style="endArrow=classic;html=1;rounded=0;entryX=0;entryY=0.5;entryDx=0;entryDy=0;flowAnimation=1;noJump=0;ignoreEdge=0;enumerate=0;comic=0;fixDash=0;flowAnimationDuration=1000;" parent="1" target="Ohnr8SIryhHbwDLeaW8W-63" edge="1">
          <mxGeometry width="50" height="50" relative="1" as="geometry">
            <mxPoint x="580" y="360.75" as="sourcePoint" />
            <mxPoint x="640" y="429.25" as="targetPoint" />
          </mxGeometry>
        </mxCell>
        <mxCell id="sf50Fowqe5iVLYME0bwj-20" value="" style="endArrow=classic;html=1;rounded=0;flowAnimation=1;noJump=0;ignoreEdge=0;enumerate=0;comic=0;fixDash=0;flowAnimationDuration=1000;" parent="1" edge="1">
          <mxGeometry width="50" height="50" relative="1" as="geometry">
            <mxPoint x="580" y="472.5" as="sourcePoint" />
            <mxPoint x="640" y="240" as="targetPoint" />
          </mxGeometry>
        </mxCell>
        <mxCell id="sf50Fowqe5iVLYME0bwj-21" value="" style="endArrow=classic;html=1;rounded=0;entryX=0;entryY=0.5;entryDx=0;entryDy=0;flowAnimation=1;noJump=0;ignoreEdge=0;enumerate=0;comic=0;fixDash=0;flowAnimationDuration=1000;" parent="1" target="Ohnr8SIryhHbwDLeaW8W-65" edge="1">
          <mxGeometry width="50" height="50" relative="1" as="geometry">
            <mxPoint x="580" y="474.25" as="sourcePoint" />
            <mxPoint x="640" y="529.5" as="targetPoint" />
          </mxGeometry>
        </mxCell>
      </root>
    </mxGraphModel>
  </diagram>
  <diagram id="x_GDfnEC4wKD7AlF1YnO" name="Page-2">
    <mxGraphModel dx="1020" dy="777" grid="1" gridSize="10" guides="1" tooltips="1" connect="1" arrows="1" fold="1" page="1" pageScale="1" pageWidth="827" pageHeight="1169" math="0" shadow="0">
      <root>
        <mxCell id="0" />
        <mxCell id="1" parent="0" />
      </root>
    </mxGraphModel>
  </diagram>
</mxfile>
